<svg xmlns="http://www.w3.org/2000/svg" xmlns:svg="http://www.w3.org/2000/svg" xmlns:xlink="http://www.w3.org/1999/xlink" id="svg2" width="128" height="128" version="1.1"><defs id="defs4"><linearGradient id="linearGradient858"><stop id="stop854" offset="0" style="stop-color:#263c5c;stop-opacity:1"/><stop id="stop856" offset="1" style="stop-color:#263c5a;stop-opacity:1"/></linearGradient><linearGradient id="linearGradient3204" x1="205.421" x2="330.97" y1="289.192" y2="289.192" gradientTransform="translate(-129.5163,-666.48391)" gradientUnits="userSpaceOnUse" xlink:href="#linearGradient858"/></defs><metadata id="metadata7"/><g id="layer1" transform="translate(-315.1676,-72.803581)"><g id="g3197" transform="matrix(1.0301914,0,0,1.0301914,-9.5153501,-6.0625407)"><rect id="rect3765" width="124.249" height="124.249" x="76.555" y="-439.416" transform="rotate(90)" style="fill:url(#linearGradient3204);fill-opacity:1;fill-rule:nonzero;stroke:none"/><g style="font-style:normal;font-weight:400;line-height:0%;font-family:sans-serif;letter-spacing:0;word-spacing:0;fill:#fff;fill-opacity:1;stroke:none" id="text3775" aria-label="D" transform="matrix(1.0073139,0,0,0.99273916,-0.13867046,0.34667621)"><path style="font-style:normal;font-variant:normal;font-weight:400;font-stretch:normal;font-size:119.92250824px;line-height:1.25;font-family:'Bauhaus 93';-inkscape-font-specification:'Bauhaus 93,';fill:#fff;fill-opacity:1" id="path854" d="m 361.99432,122.6877 -0.0304,57.43789 h -23.7433 V 99.733777 h 30.97607 c 13.58497,0 24.22263,3.083943 31.91298,9.251833 9.13472,7.37805 13.70208,17.39111 13.70208,30.03918 0,12.10156 -3.90373,21.97799 -11.71118,29.6293 -7.80746,7.6513 -17.85956,11.47695 -30.1563,11.47695 -1.44438,0 -7.08526,-0.0182 -7.08526,-0.0182 V 156.4159 h 3.80613 c 13.85823,0 20.78735,-5.79704 20.78735,-17.39111 0,-10.89139 -6.812,-16.33709 -20.43601,-16.33709 z"/></g><ellipse style="display:inline;fill:#60bbc1;fill-opacity:1;stroke:none;stroke-width:.62043476;stroke-opacity:1" id="path957" cx="407.148" cy="108.86" rx="10.733" ry="10.694"/></g></g></svg>